<?xml version="1.0" encoding="UTF-8" standalone="no"?>
<!-- Created with Inkscape (http://www.inkscape.org/) -->

<svg
   xmlns:dc="http://purl.org/dc/elements/1.1/"
   xmlns:cc="http://creativecommons.org/ns#"
   xmlns:rdf="http://www.w3.org/1999/02/22-rdf-syntax-ns#"
   xmlns:svg="http://www.w3.org/2000/svg"
   xmlns="http://www.w3.org/2000/svg"
   xmlns:xlink="http://www.w3.org/1999/xlink"
   xmlns:sodipodi="http://sodipodi.sourceforge.net/DTD/sodipodi-0.dtd"
   xmlns:inkscape="http://www.inkscape.org/namespaces/inkscape"
   version="1.1"
   id="svg826"
   width="64"
   height="64"
   viewBox="0 0 64 64"
   sodipodi:docname="abap_standard_doc.svg"
   inkscape:version="0.92.4 (5da689c313, 2019-01-14)">
  <metadata
     id="metadata832">
    <rdf:RDF>
      <cc:Work
         rdf:about="">
        <dc:format>image/svg+xml</dc:format>
        <dc:type
           rdf:resource="http://purl.org/dc/dcmitype/StillImage" />
        <dc:title />
      </cc:Work>
    </rdf:RDF>
  </metadata>
  <defs
     id="defs830">
    <linearGradient
       inkscape:collect="always"
       id="linearGradient2031">
      <stop
         style="stop-color:#fcfdfe;stop-opacity:1"
         offset="0"
         id="stop2027" />
      <stop
         style="stop-color:#bccade;stop-opacity:1"
         offset="1"
         id="stop2029" />
    </linearGradient>
    <linearGradient
       id="linearGradient2025">
      <stop
         style="stop-color:#0e62a4;stop-opacity:1"
         offset="0"
         id="stop2021" />
      <stop
         style="stop-color:#02468c;stop-opacity:1"
         offset="1"
         id="stop2023" />
    </linearGradient>
    <linearGradient
       inkscape:collect="always"
       id="linearGradient2017">
      <stop
         style="stop-color:#8492ba;stop-opacity:1"
         offset="0"
         id="stop2013" />
      <stop
         style="stop-color:#c5ced5;stop-opacity:1"
         offset="1"
         id="stop2015" />
    </linearGradient>
    <linearGradient
       id="linearGradient7732">
      <stop
         style="stop-color:#ffffff;stop-opacity:0;"
         offset="0"
         id="stop7726" />
      <stop
         id="stop7728"
         offset="0.83918184"
         style="stop-color:#ffffff;stop-opacity:1;" />
      <stop
         style="stop-color:#ffffff;stop-opacity:0;"
         offset="1"
         id="stop7730" />
    </linearGradient>
    <linearGradient
       gradientTransform="matrix(0.45698002,0,0,1.0175521,-203.76265,-347.51463)"
       gradientUnits="userSpaceOnUse"
       y2="359.8707"
       x2="485.64713"
       y1="381.37354"
       x1="492.81473"
       id="linearGradient4341-3"
       xlink:href="#linearGradient4335-4"
       inkscape:collect="always" />
    <linearGradient
       id="linearGradient4335-4"
       inkscape:collect="always">
      <stop
         id="stop4337-6"
         offset="0"
         style="stop-color:#0083cf;stop-opacity:1" />
      <stop
         id="stop4339-8"
         offset="1"
         style="stop-color:#008cd3;stop-opacity:1" />
    </linearGradient>
    <linearGradient
       gradientTransform="matrix(0.45698002,0,0,1.0175521,-203.76265,-347.51463)"
       gradientUnits="userSpaceOnUse"
       y2="365.29617"
       x2="479.20987"
       y1="384.95734"
       x1="485.64713"
       id="linearGradient4333-3"
       xlink:href="#linearGradient4327-9"
       inkscape:collect="always" />
    <linearGradient
       id="linearGradient4327-9"
       inkscape:collect="always">
      <stop
         id="stop4329-8"
         offset="0"
         style="stop-color:#0074b8;stop-opacity:1" />
      <stop
         id="stop4331-4"
         offset="1"
         style="stop-color:#007bba;stop-opacity:1" />
    </linearGradient>
    <linearGradient
       y2="344.11472"
       x2="470.31604"
       y1="377.37057"
       x1="491.73877"
       gradientTransform="matrix(0.73429729,0,0,0.92643207,-352.1102,-321.02014)"
       gradientUnits="userSpaceOnUse"
       id="linearGradient7734"
       xlink:href="#linearGradient7732"
       inkscape:collect="always" />
    <filter
       height="1.1018405"
       y="-0.050920272"
       width="1.0580675"
       x="-0.02903375"
       id="filter7824"
       style="color-interpolation-filters:sRGB"
       inkscape:collect="always">
      <feGaussianBlur
         id="feGaussianBlur7826"
         stdDeviation="0.869489"
         inkscape:collect="always" />
    </filter>
    <linearGradient
       id="linearGradient4996"
       inkscape:collect="always">
      <stop
         id="stop4998"
         offset="0"
         style="stop-color:#02468c;stop-opacity:1" />
      <stop
         id="stop5000"
         offset="1"
         style="stop-color:#0e62a4;stop-opacity:1" />
    </linearGradient>
    <linearGradient
       gradientTransform="translate(2)"
       gradientUnits="userSpaceOnUse"
       y2="1051.7347"
       x2="13.903196"
       y1="1062.1353"
       x1="13.903196"
       id="linearGradient5002"
       xlink:href="#linearGradient4996"
       inkscape:collect="always" />
    <linearGradient
       y2="1051.7347"
       x2="13.903196"
       y1="1062.1353"
       x1="13.903196"
       gradientTransform="matrix(0.97704778,0,0,1,2.2500552,0)"
       gradientUnits="userSpaceOnUse"
       id="linearGradient2996"
       xlink:href="#linearGradient4996"
       inkscape:collect="always" />
    <linearGradient
       inkscape:collect="always"
       xlink:href="#linearGradient2025"
       id="linearGradient3798"
       gradientUnits="userSpaceOnUse"
       gradientTransform="matrix(0.97704778,0,0,1,2.250055,-1.0000001e-6)"
       x1="13.787244"
       y1="1055.4131"
       x2="13.968704"
       y2="1059.8925" />
    <linearGradient
       inkscape:collect="always"
       xlink:href="#linearGradient2017"
       id="linearGradient2019"
       x1="25.400761"
       y1="52.68306"
       x2="25.867903"
       y2="9.1180143"
       gradientUnits="userSpaceOnUse" />
    <linearGradient
       inkscape:collect="always"
       xlink:href="#linearGradient2031"
       id="linearGradient2033"
       x1="35.744972"
       y1="31.099464"
       x2="54.612873"
       y2="45.621143"
       gradientUnits="userSpaceOnUse" />
    <filter
       inkscape:collect="always"
       style="color-interpolation-filters:sRGB"
       id="filter2080"
       x="-0.057375"
       width="1.11475"
       y="-0.065571429"
       height="1.1311429">
      <feGaussianBlur
         inkscape:collect="always"
         stdDeviation="1.1475"
         id="feGaussianBlur2082" />
    </filter>
    <filter
       inkscape:collect="always"
       style="color-interpolation-filters:sRGB"
       id="filter2175"
       x="-0.12047943"
       width="1.2409589"
       y="-0.042705067"
       height="1.0854101">
      <feGaussianBlur
         inkscape:collect="always"
         stdDeviation="0.20033836"
         id="feGaussianBlur2177" />
    </filter>
  </defs>
  <sodipodi:namedview
     pagecolor="#ffffff"
     bordercolor="#666666"
     borderopacity="1"
     objecttolerance="10"
     gridtolerance="10"
     guidetolerance="10"
     inkscape:pageopacity="0"
     inkscape:pageshadow="2"
     inkscape:window-width="1920"
     inkscape:window-height="1017"
     id="namedview828"
     showgrid="true"
     inkscape:snap-bbox="true"
     inkscape:bbox-nodes="true"
     inkscape:snap-nodes="false"
     inkscape:zoom="17.240189"
     inkscape:cx="32.5"
     inkscape:cy="29.913269"
     inkscape:window-x="-8"
     inkscape:window-y="-8"
     inkscape:window-maximized="1"
     inkscape:current-layer="svg826">
    <inkscape:grid
       type="xygrid"
       id="grid1379" />
  </sodipodi:namedview>
  <g
     id="text4140-1-8-1"
     style="font-style:normal;font-variant:normal;font-weight:900;font-stretch:normal;font-size:15.07241726px;line-height:125%;font-family:'Kozuka Mincho Pr6N H';-inkscape-font-specification:'Kozuka Mincho Pr6N H Heavy';text-align:start;letter-spacing:0px;word-spacing:0px;writing-mode:lr-tb;text-anchor:start;display:inline;opacity:0.51700003;fill:#b3b3b3;fill-opacity:1;stroke:none;stroke-width:0.58717561;filter:url(#filter2175)"
     transform="matrix(1.8320715,0,0,1.5831481,22.941185,-1623.1706)">
    <path
       inkscape:connector-curvature="0"
       id="path5058-4"
       style="fill:#b3b3b3;stroke:none;stroke-width:0.58717561"
       d="m 16.168743,1050.9177 c -0.347298,0.01 -0.635687,0.1291 -0.86517,0.3674 -0.229485,0.2383 -0.348523,0.5529 -0.357112,0.9439 0.0086,0.3981 0.127627,0.7172 0.357113,0.9571 0.229482,0.2399 0.517871,0.363 0.865169,0.3692 0.354348,-0.01 0.647032,-0.1293 0.878054,-0.3692 0.231015,-0.2399 0.350665,-0.559 0.358954,-0.9571 -0.0056,-0.3778 -0.119655,-0.6886 -0.342387,-0.9326 -0.222739,-0.244 -0.520945,-0.3702 -0.894621,-0.3787 z m 0.927756,3.3912 c -1.016117,0.4346 -1.973323,0.6808 -2.871626,0.7386 v 0.6029 c 0.425835,-0.02 0.693362,0.039 0.802582,0.1771 0.109219,0.1381 0.155852,0.476 0.139901,1.0136 v 3.4515 c 0.01504,0.5401 -0.03345,0.888 -0.145422,1.0438 -0.111982,0.1557 -0.377669,0.2248 -0.797061,0.2072 v 0.633 h 3.990823 v -0.633 c -0.377672,0.017 -0.620042,-0.051 -0.727111,-0.2054 -0.107076,-0.1541 -0.154322,-0.4977 -0.141739,-1.0305 v -5.8631 z" />
    <path
       inkscape:connector-curvature="0"
       id="path5058-7-1"
       style="font-style:normal;font-variant:normal;font-weight:900;font-stretch:normal;font-size:15.07241726px;line-height:125%;font-family:'Kozuka Mincho Pr6N H';-inkscape-font-specification:'Kozuka Mincho Pr6N H Heavy';text-align:start;letter-spacing:0px;word-spacing:0px;writing-mode:lr-tb;text-anchor:start;display:inline;fill:#b3b3b3;fill-opacity:1;stroke:none;stroke-width:0.58717561"
       d="m 16.168743,1050.9177 c -0.347298,0.01 -0.635687,0.1291 -0.86517,0.3674 -0.229485,0.2383 -0.348523,0.5529 -0.357112,0.9439 0.0086,0.3981 0.127627,0.7172 0.357113,0.9571 0.229482,0.2399 0.517871,0.363 0.865169,0.3692 0.354348,-0.01 0.647032,-0.1293 0.878054,-0.3692 0.231015,-0.2399 0.350665,-0.559 0.358954,-0.9571 -0.0056,-0.3778 -0.119655,-0.6886 -0.342387,-0.9326 -0.222739,-0.244 -0.520945,-0.3702 -0.894621,-0.3787 z m 0.927756,3.3912 c -1.016117,0.4346 -1.973323,0.6808 -2.871626,0.7386 v 0.6029 c 0.425835,-0.02 0.693362,0.039 0.802582,0.1771 0.109219,0.1381 0.155852,0.476 0.139901,1.0136 v 3.4515 c 0.01504,0.5401 -0.03345,0.888 -0.145422,1.0438 -0.111982,0.1557 -0.377669,0.2248 -0.797061,0.2072 v 0.633 h 3.990823 v -0.633 c -0.377672,0.017 -0.620042,-0.051 -0.727111,-0.2054 -0.107076,-0.1541 -0.154322,-0.4977 -0.141739,-1.0305 v -5.8631 z" />
  </g>
  <rect
     style="opacity:0.503;fill:#b3b3b3;fill-opacity:1;stroke:#b3b3b3;stroke-width:1.96962309;stroke-linecap:round;stroke-linejoin:round;stroke-miterlimit:4;stroke-dasharray:none;stroke-dashoffset:0;stroke-opacity:1;filter:url(#filter2080)"
     id="rect2011-7"
     width="48"
     height="42"
     x="9.2459984"
     y="12.754"
     transform="matrix(1.0310833,0,0,1,-1.7793946,0)" />
  <rect
     style="opacity:1;fill:url(#linearGradient2033);fill-opacity:1;stroke:url(#linearGradient2019);stroke-width:2;stroke-linecap:round;stroke-linejoin:round;stroke-miterlimit:4;stroke-dasharray:none;stroke-dashoffset:0;stroke-opacity:1"
     id="rect2011"
     width="48"
     height="42"
     x="8"
     y="10" />
  <path
     sodipodi:nodetypes="cccccc"
     inkscape:connector-curvature="0"
     id="path4325-4"
     d="M 13.999945,17.047917 48,17 v 4 L 23.267974,46.000158 h -9.268025 z"
     style="display:inline;fill:url(#linearGradient4341-3);fill-opacity:1;fill-rule:evenodd;stroke:url(#linearGradient4333-3);stroke-width:2;stroke-linecap:butt;stroke-linejoin:miter;stroke-miterlimit:4;stroke-dasharray:none;stroke-opacity:1" />
  <path
     transform="matrix(0.58086919,0,0,0.547644,22.090874,18.133876)"
     sodipodi:nodetypes="ccccc"
     inkscape:connector-curvature="0"
     id="path4325-4-7"
     d="M -9.4093261,3.7704165 62.464739,3.6523572 26.339829,44.516078 -9.3077242,44.633552 Z"
     style="display:inline;opacity:0.547;fill:url(#linearGradient7734);fill-opacity:1;fill-rule:evenodd;stroke:none;stroke-width:3.76729918;stroke-linecap:butt;stroke-linejoin:miter;stroke-miterlimit:4;stroke-dasharray:none;stroke-opacity:1;filter:url(#filter7824)" />
  <g
     id="text4140-1-8"
     style="font-style:normal;font-variant:normal;font-weight:900;font-stretch:normal;font-size:15.07241726px;line-height:125%;font-family:'Kozuka Mincho Pr6N H';-inkscape-font-specification:'Kozuka Mincho Pr6N H Heavy';text-align:start;letter-spacing:0px;word-spacing:0px;writing-mode:lr-tb;text-anchor:start;display:inline;fill:url(#linearGradient5002);fill-opacity:1;stroke:none;stroke-width:0.62362593"
     transform="matrix(1.7029375,0,0,1.5099166,23.979808,-1546.7981)">
    <path
       inkscape:connector-curvature="0"
       id="path5058"
       style="fill:url(#linearGradient2996);stroke-width:0.62362593"
       d="m 16.168743,1050.9177 c -0.347298,0.01 -0.635687,0.1291 -0.86517,0.3674 -0.229485,0.2383 -0.348523,0.5529 -0.357112,0.9439 0.0086,0.3981 0.127627,0.7172 0.357113,0.9571 0.229482,0.2399 0.517871,0.363 0.865169,0.3692 0.354348,-0.01 0.647032,-0.1293 0.878054,-0.3692 0.231015,-0.2399 0.350665,-0.559 0.358954,-0.9571 -0.0056,-0.3778 -0.119655,-0.6886 -0.342387,-0.9326 -0.222739,-0.244 -0.520945,-0.3702 -0.894621,-0.3787 z m 0.927756,3.3912 c -1.016117,0.4346 -1.973323,0.6808 -2.871626,0.7386 v 0.6029 c 0.425835,-0.02 0.693362,0.039 0.802582,0.1771 0.109219,0.1381 0.155852,0.476 0.139901,1.0136 v 3.4515 c 0.01504,0.5401 -0.03345,0.888 -0.145422,1.0438 -0.111982,0.1557 -0.377669,0.2248 -0.797061,0.2072 v 0.633 h 3.990823 v -0.633 c -0.377672,0.017 -0.620042,-0.051 -0.727111,-0.2054 -0.107076,-0.1541 -0.154322,-0.4977 -0.141739,-1.0305 v -5.8631 z" />
    <path
       inkscape:connector-curvature="0"
       id="path5058-7"
       style="font-style:normal;font-variant:normal;font-weight:900;font-stretch:normal;font-size:15.07241726px;line-height:125%;font-family:'Kozuka Mincho Pr6N H';-inkscape-font-specification:'Kozuka Mincho Pr6N H Heavy';text-align:start;letter-spacing:0px;word-spacing:0px;writing-mode:lr-tb;text-anchor:start;display:inline;fill:url(#linearGradient3798);fill-opacity:1;stroke:none;stroke-width:0.62362593"
       d="m 16.168743,1050.9177 c -0.347298,0.01 -0.635687,0.1291 -0.86517,0.3674 -0.229485,0.2383 -0.348523,0.5529 -0.357112,0.9439 0.0086,0.3981 0.127627,0.7172 0.357113,0.9571 0.229482,0.2399 0.517871,0.363 0.865169,0.3692 0.354348,-0.01 0.647032,-0.1293 0.878054,-0.3692 0.231015,-0.2399 0.350665,-0.559 0.358954,-0.9571 -0.0056,-0.3778 -0.119655,-0.6886 -0.342387,-0.9326 -0.222739,-0.244 -0.520945,-0.3702 -0.894621,-0.3787 z m 0.927756,3.3912 c -1.016117,0.4346 -1.973323,0.6808 -2.871626,0.7386 v 0.6029 c 0.425835,-0.02 0.693362,0.039 0.802582,0.1771 0.109219,0.1381 0.155852,0.476 0.139901,1.0136 v 3.4515 c 0.01504,0.5401 -0.03345,0.888 -0.145422,1.0438 -0.111982,0.1557 -0.377669,0.2248 -0.797061,0.2072 v 0.633 h 3.990823 v -0.633 c -0.377672,0.017 -0.620042,-0.051 -0.727111,-0.2054 -0.107076,-0.1541 -0.154322,-0.4977 -0.141739,-1.0305 v -5.8631 z" />
  </g>
</svg>
